<mxfile host="app.diagrams.net" modified="2022-11-16T16:25:13.272Z" agent="5.0 (Windows NT 10.0; Win64; x64) AppleWebKit/537.36 (KHTML, like Gecko) Chrome/107.0.0.0 Safari/537.36" etag="EJrBcjWEwkJaWU7xaFGN" version="20.5.3" type="github">
  <diagram id="WSj-ofv7-w6pcWycVjmf" name="Page-1">
    <mxGraphModel dx="2211" dy="729" grid="1" gridSize="10" guides="1" tooltips="1" connect="1" arrows="1" fold="1" page="1" pageScale="1" pageWidth="827" pageHeight="1169" math="0" shadow="0">
      <root>
        <mxCell id="0" />
        <mxCell id="1" parent="0" />
        <mxCell id="iVrFUYGp8FM9man2nASM-22" value="" style="whiteSpace=wrap;html=1;strokeColor=#000099;" vertex="1" parent="1">
          <mxGeometry x="430" y="330" width="370" height="400" as="geometry" />
        </mxCell>
        <mxCell id="iVrFUYGp8FM9man2nASM-85" value="" style="rounded=0;whiteSpace=wrap;html=1;" vertex="1" parent="1">
          <mxGeometry x="650" y="630" width="130" height="60" as="geometry" />
        </mxCell>
        <mxCell id="iVrFUYGp8FM9man2nASM-1" value="" style="whiteSpace=wrap;html=1;strokeColor=#000099;" vertex="1" parent="1">
          <mxGeometry x="-190.45" y="330" width="490" height="400" as="geometry" />
        </mxCell>
        <mxCell id="iVrFUYGp8FM9man2nASM-2" value="" style="rounded=0;whiteSpace=wrap;html=1;" vertex="1" parent="1">
          <mxGeometry x="139.55" y="430" width="130" height="200" as="geometry" />
        </mxCell>
        <mxCell id="iVrFUYGp8FM9man2nASM-3" value="" style="rounded=0;whiteSpace=wrap;html=1;" vertex="1" parent="1">
          <mxGeometry x="159.55" y="485" width="90" height="135" as="geometry" />
        </mxCell>
        <mxCell id="iVrFUYGp8FM9man2nASM-4" value="" style="whiteSpace=wrap;html=1;strokeColor=#000099;" vertex="1" parent="1">
          <mxGeometry x="-170" y="160" width="290" height="120" as="geometry" />
        </mxCell>
        <mxCell id="iVrFUYGp8FM9man2nASM-5" value="" style="whiteSpace=wrap;html=1;strokeColor=#000099;" vertex="1" parent="1">
          <mxGeometry x="-535.45" y="330" width="290" height="400" as="geometry" />
        </mxCell>
        <mxCell id="iVrFUYGp8FM9man2nASM-6" value="" style="whiteSpace=wrap;html=1;strokeColor=#000099;" vertex="1" parent="1">
          <mxGeometry x="190" y="160" width="350" height="120" as="geometry" />
        </mxCell>
        <mxCell id="iVrFUYGp8FM9man2nASM-7" value="" style="sketch=0;aspect=fixed;pointerEvents=1;shadow=0;dashed=0;html=1;strokeColor=none;labelPosition=center;verticalLabelPosition=bottom;verticalAlign=top;align=center;fillColor=#00188D;shape=mxgraph.azure.server_rack" vertex="1" parent="1">
          <mxGeometry x="-70.45" y="350" width="50" height="50" as="geometry" />
        </mxCell>
        <mxCell id="iVrFUYGp8FM9man2nASM-8" value="VRA/VRO" style="text;html=1;align=center;verticalAlign=middle;resizable=0;points=[];autosize=1;strokeColor=none;fillColor=none;" vertex="1" parent="1">
          <mxGeometry x="-85.45" y="330" width="80" height="30" as="geometry" />
        </mxCell>
        <mxCell id="iVrFUYGp8FM9man2nASM-9" value="&lt;b&gt;SDDC FR&lt;/b&gt;" style="text;html=1;align=center;verticalAlign=middle;resizable=0;points=[];autosize=1;strokeColor=none;fillColor=none;" vertex="1" parent="1">
          <mxGeometry x="-150.45" y="300" width="80" height="30" as="geometry" />
        </mxCell>
        <mxCell id="iVrFUYGp8FM9man2nASM-10" value="" style="sketch=0;aspect=fixed;pointerEvents=1;shadow=0;dashed=0;html=1;strokeColor=none;labelPosition=center;verticalLabelPosition=bottom;verticalAlign=top;align=center;fillColor=#00188D;shape=mxgraph.mscae.enterprise.internet" vertex="1" parent="1">
          <mxGeometry x="-220.45" y="300" width="80.65" height="50" as="geometry" />
        </mxCell>
        <mxCell id="iVrFUYGp8FM9man2nASM-11" value="" style="pointerEvents=1;shadow=0;dashed=0;html=1;strokeColor=none;fillColor=#4495D1;labelPosition=center;verticalLabelPosition=bottom;verticalAlign=top;align=center;outlineConnect=0;shape=mxgraph.veeam.hyper_v_host;" vertex="1" parent="1">
          <mxGeometry x="-120.44999999999999" y="610" width="108" height="104" as="geometry" />
        </mxCell>
        <mxCell id="iVrFUYGp8FM9man2nASM-12" style="edgeStyle=orthogonalEdgeStyle;rounded=0;orthogonalLoop=1;jettySize=auto;html=1;" edge="1" parent="1" source="iVrFUYGp8FM9man2nASM-13" target="iVrFUYGp8FM9man2nASM-11">
          <mxGeometry relative="1" as="geometry">
            <Array as="points">
              <mxPoint x="-150.45" y="395" />
              <mxPoint x="-150.45" y="640" />
            </Array>
          </mxGeometry>
        </mxCell>
        <mxCell id="iVrFUYGp8FM9man2nASM-13" value="" style="sketch=0;aspect=fixed;pointerEvents=1;shadow=0;dashed=0;html=1;strokeColor=none;labelPosition=center;verticalLabelPosition=bottom;verticalAlign=top;align=center;fillColor=#00188D;shape=mxgraph.azure.server_rack" vertex="1" parent="1">
          <mxGeometry x="-70.45" y="370" width="50" height="50" as="geometry" />
        </mxCell>
        <mxCell id="iVrFUYGp8FM9man2nASM-14" style="edgeStyle=orthogonalEdgeStyle;rounded=0;orthogonalLoop=1;jettySize=auto;html=1;exitX=0.5;exitY=1;exitDx=0;exitDy=0;exitPerimeter=0;entryX=0;entryY=0.5;entryDx=0;entryDy=0;" edge="1" parent="1" target="iVrFUYGp8FM9man2nASM-2">
          <mxGeometry relative="1" as="geometry">
            <Array as="points">
              <mxPoint x="-65" y="375" />
              <mxPoint x="2" y="375" />
              <mxPoint x="2" y="520" />
              <mxPoint x="140" y="520" />
            </Array>
            <mxPoint x="139.55" y="533.6" as="targetPoint" />
            <mxPoint x="-65.44" y="233.75" as="sourcePoint" />
          </mxGeometry>
        </mxCell>
        <mxCell id="iVrFUYGp8FM9man2nASM-15" value="" style="sketch=0;aspect=fixed;pointerEvents=1;shadow=0;dashed=0;html=1;strokeColor=none;labelPosition=center;verticalLabelPosition=bottom;verticalAlign=top;align=center;fillColor=#00188D;shape=mxgraph.azure.server" vertex="1" parent="1">
          <mxGeometry x="-92" y="223.75" width="50" height="15" as="geometry" />
        </mxCell>
        <mxCell id="iVrFUYGp8FM9man2nASM-16" value="Jenkins&lt;br&gt;fr-gdr-oamtom01px" style="text;html=1;align=center;verticalAlign=middle;resizable=0;points=[];autosize=1;strokeColor=none;fillColor=none;" vertex="1" parent="1">
          <mxGeometry x="-130" y="183.75" width="130" height="40" as="geometry" />
        </mxCell>
        <mxCell id="iVrFUYGp8FM9man2nASM-17" style="edgeStyle=orthogonalEdgeStyle;rounded=0;orthogonalLoop=1;jettySize=auto;html=1;" edge="1" parent="1" target="iVrFUYGp8FM9man2nASM-32">
          <mxGeometry relative="1" as="geometry">
            <mxPoint x="-315.45000000000005" y="450" as="sourcePoint" />
          </mxGeometry>
        </mxCell>
        <mxCell id="iVrFUYGp8FM9man2nASM-18" style="edgeStyle=orthogonalEdgeStyle;rounded=0;orthogonalLoop=1;jettySize=auto;html=1;exitX=0.25;exitY=0.125;exitDx=0;exitDy=0;exitPerimeter=0;" edge="1" parent="1" source="iVrFUYGp8FM9man2nASM-49" target="iVrFUYGp8FM9man2nASM-31">
          <mxGeometry relative="1" as="geometry" />
        </mxCell>
        <mxCell id="iVrFUYGp8FM9man2nASM-19" value="" style="sketch=0;aspect=fixed;pointerEvents=1;shadow=0;dashed=0;html=1;strokeColor=none;labelPosition=center;verticalLabelPosition=bottom;verticalAlign=top;align=center;fillColor=#00188D;shape=mxgraph.azure.server" vertex="1" parent="1">
          <mxGeometry x="179.55" y="490" width="50" height="15" as="geometry" />
        </mxCell>
        <mxCell id="iVrFUYGp8FM9man2nASM-20" value="&lt;b&gt;Endpoints&lt;/b&gt;" style="text;html=1;align=center;verticalAlign=middle;resizable=0;points=[];autosize=1;strokeColor=none;fillColor=none;" vertex="1" parent="1">
          <mxGeometry x="205" y="130" width="80" height="30" as="geometry" />
        </mxCell>
        <mxCell id="iVrFUYGp8FM9man2nASM-21" value="" style="sketch=0;aspect=fixed;pointerEvents=1;shadow=0;dashed=0;html=1;strokeColor=none;labelPosition=center;verticalLabelPosition=bottom;verticalAlign=top;align=center;fillColor=#00188D;shape=mxgraph.azure.server_rack" vertex="1" parent="1">
          <mxGeometry x="485" y="360" width="50" height="50" as="geometry" />
        </mxCell>
        <mxCell id="iVrFUYGp8FM9man2nASM-23" value="VRA/VRO" style="text;html=1;align=center;verticalAlign=middle;resizable=0;points=[];autosize=1;strokeColor=none;fillColor=none;" vertex="1" parent="1">
          <mxGeometry x="470" y="432.5" width="80" height="30" as="geometry" />
        </mxCell>
        <mxCell id="iVrFUYGp8FM9man2nASM-24" value="&lt;b&gt;SDDC UK&lt;/b&gt;" style="text;html=1;align=center;verticalAlign=middle;resizable=0;points=[];autosize=1;strokeColor=none;fillColor=none;" vertex="1" parent="1">
          <mxGeometry x="470" y="300" width="80" height="30" as="geometry" />
        </mxCell>
        <mxCell id="iVrFUYGp8FM9man2nASM-25" value="" style="sketch=0;aspect=fixed;pointerEvents=1;shadow=0;dashed=0;html=1;strokeColor=none;labelPosition=center;verticalLabelPosition=bottom;verticalAlign=top;align=center;fillColor=#00188D;shape=mxgraph.mscae.enterprise.internet" vertex="1" parent="1">
          <mxGeometry x="400" y="300" width="80.65" height="50" as="geometry" />
        </mxCell>
        <mxCell id="iVrFUYGp8FM9man2nASM-26" value="" style="pointerEvents=1;shadow=0;dashed=0;html=1;strokeColor=none;fillColor=#4495D1;labelPosition=center;verticalLabelPosition=bottom;verticalAlign=top;align=center;outlineConnect=0;shape=mxgraph.veeam.hyper_v_host;" vertex="1" parent="1">
          <mxGeometry x="500" y="610" width="108" height="104" as="geometry" />
        </mxCell>
        <mxCell id="iVrFUYGp8FM9man2nASM-27" style="edgeStyle=orthogonalEdgeStyle;rounded=0;orthogonalLoop=1;jettySize=auto;html=1;" edge="1" parent="1" target="iVrFUYGp8FM9man2nASM-26">
          <mxGeometry relative="1" as="geometry">
            <Array as="points">
              <mxPoint x="630" y="405" />
              <mxPoint x="630" y="640" />
            </Array>
            <mxPoint x="620" y="660" as="targetPoint" />
            <mxPoint x="510.0666666666666" y="472.5" as="sourcePoint" />
          </mxGeometry>
        </mxCell>
        <mxCell id="iVrFUYGp8FM9man2nASM-29" value="&lt;b&gt;Public Cloud&lt;/b&gt;" style="text;html=1;align=center;verticalAlign=middle;resizable=0;points=[];autosize=1;strokeColor=none;fillColor=none;" vertex="1" parent="1">
          <mxGeometry x="-505.45000000000005" y="300" width="100" height="30" as="geometry" />
        </mxCell>
        <mxCell id="iVrFUYGp8FM9man2nASM-30" value="" style="outlineConnect=0;dashed=0;verticalLabelPosition=bottom;verticalAlign=top;align=center;html=1;shape=mxgraph.aws3.cloud_2;fillColor=#F58534;gradientColor=none;strokeColor=#000099;" vertex="1" parent="1">
          <mxGeometry x="-570.45" y="287.5" width="75" height="75" as="geometry" />
        </mxCell>
        <mxCell id="iVrFUYGp8FM9man2nASM-31" value="AWS Account" style="points=[[0,0],[0.25,0],[0.5,0],[0.75,0],[1,0],[1,0.25],[1,0.5],[1,0.75],[1,1],[0.75,1],[0.5,1],[0.25,1],[0,1],[0,0.75],[0,0.5],[0,0.25]];outlineConnect=0;gradientColor=none;html=1;whiteSpace=wrap;fontSize=12;fontStyle=0;container=1;pointerEvents=0;collapsible=0;recursiveResize=0;shape=mxgraph.aws4.group;grIcon=mxgraph.aws4.group_account;strokeColor=#CD2264;fillColor=none;verticalAlign=top;align=left;spacingLeft=30;fontColor=#CD2264;dashed=0;" vertex="1" parent="1">
          <mxGeometry x="-526.45" y="590" width="130" height="130" as="geometry" />
        </mxCell>
        <mxCell id="iVrFUYGp8FM9man2nASM-32" value="AWS Account" style="points=[[0,0],[0.25,0],[0.5,0],[0.75,0],[1,0],[1,0.25],[1,0.5],[1,0.75],[1,1],[0.75,1],[0.5,1],[0.25,1],[0,1],[0,0.75],[0,0.5],[0,0.25]];outlineConnect=0;gradientColor=none;html=1;whiteSpace=wrap;fontSize=12;fontStyle=0;container=1;pointerEvents=0;collapsible=0;recursiveResize=0;shape=mxgraph.aws4.group;grIcon=mxgraph.aws4.group_account;strokeColor=#CD2264;fillColor=none;verticalAlign=top;align=left;spacingLeft=30;fontColor=#CD2264;dashed=0;" vertex="1" parent="1">
          <mxGeometry x="-380.45" y="590" width="130" height="130" as="geometry" />
        </mxCell>
        <mxCell id="iVrFUYGp8FM9man2nASM-66" value="" style="rounded=0;whiteSpace=wrap;html=1;" vertex="1" parent="iVrFUYGp8FM9man2nASM-32">
          <mxGeometry x="10" y="54" width="110.45" height="70" as="geometry" />
        </mxCell>
        <mxCell id="iVrFUYGp8FM9man2nASM-67" value="Gitlab Runners" style="text;html=1;align=center;verticalAlign=middle;resizable=0;points=[];autosize=1;strokeColor=none;fillColor=none;" vertex="1" parent="iVrFUYGp8FM9man2nASM-32">
          <mxGeometry x="15.220000000000056" y="24" width="100" height="30" as="geometry" />
        </mxCell>
        <mxCell id="iVrFUYGp8FM9man2nASM-68" value="" style="sketch=0;aspect=fixed;pointerEvents=1;shadow=0;dashed=0;html=1;strokeColor=none;labelPosition=center;verticalLabelPosition=bottom;verticalAlign=top;align=center;fillColor=#00188D;shape=mxgraph.azure.server" vertex="1" parent="iVrFUYGp8FM9man2nASM-32">
          <mxGeometry x="40.220000000000056" y="72.75" width="50" height="15" as="geometry" />
        </mxCell>
        <mxCell id="iVrFUYGp8FM9man2nASM-69" value="" style="sketch=0;aspect=fixed;pointerEvents=1;shadow=0;dashed=0;html=1;strokeColor=none;labelPosition=center;verticalLabelPosition=bottom;verticalAlign=top;align=center;fillColor=#00188D;shape=mxgraph.azure.server" vertex="1" parent="iVrFUYGp8FM9man2nASM-32">
          <mxGeometry x="40.220000000000056" y="99" width="50" height="15" as="geometry" />
        </mxCell>
        <mxCell id="iVrFUYGp8FM9man2nASM-33" value="CMDB/SGDT" style="text;html=1;align=center;verticalAlign=middle;resizable=0;points=[];autosize=1;strokeColor=none;fillColor=none;" vertex="1" parent="1">
          <mxGeometry x="230" y="178.75" width="100" height="30" as="geometry" />
        </mxCell>
        <mxCell id="iVrFUYGp8FM9man2nASM-34" value="" style="sketch=0;aspect=fixed;pointerEvents=1;shadow=0;dashed=0;html=1;strokeColor=none;labelPosition=center;verticalLabelPosition=bottom;verticalAlign=top;align=center;fillColor=#00188D;shape=mxgraph.azure.server_rack" vertex="1" parent="1">
          <mxGeometry x="255" y="208.75" width="50" height="50" as="geometry" />
        </mxCell>
        <mxCell id="iVrFUYGp8FM9man2nASM-35" value="IPAM" style="text;html=1;align=center;verticalAlign=middle;resizable=0;points=[];autosize=1;strokeColor=none;fillColor=none;" vertex="1" parent="1">
          <mxGeometry x="340" y="178.75" width="50" height="30" as="geometry" />
        </mxCell>
        <mxCell id="iVrFUYGp8FM9man2nASM-36" value="" style="sketch=0;aspect=fixed;pointerEvents=1;shadow=0;dashed=0;html=1;strokeColor=none;labelPosition=center;verticalLabelPosition=bottom;verticalAlign=top;align=center;fillColor=#00188D;shape=mxgraph.azure.server_rack" vertex="1" parent="1">
          <mxGeometry x="340" y="208.75" width="50" height="50" as="geometry" />
        </mxCell>
        <mxCell id="iVrFUYGp8FM9man2nASM-37" value="DNS" style="text;html=1;align=center;verticalAlign=middle;resizable=0;points=[];autosize=1;strokeColor=none;fillColor=none;" vertex="1" parent="1">
          <mxGeometry x="415.32" y="178.75" width="50" height="30" as="geometry" />
        </mxCell>
        <mxCell id="iVrFUYGp8FM9man2nASM-38" value="" style="sketch=0;aspect=fixed;pointerEvents=1;shadow=0;dashed=0;html=1;strokeColor=none;labelPosition=center;verticalLabelPosition=bottom;verticalAlign=top;align=center;fillColor=#00188D;shape=mxgraph.azure.server_rack" vertex="1" parent="1">
          <mxGeometry x="415.32" y="208.75" width="50" height="50" as="geometry" />
        </mxCell>
        <mxCell id="iVrFUYGp8FM9man2nASM-39" value="" style="shape=cylinder3;whiteSpace=wrap;html=1;boundedLbl=1;backgroundOutline=1;size=15;fillColor=#000066;fontColor=#ffffff;strokeColor=#001DBC;" vertex="1" parent="1">
          <mxGeometry x="-190" y="120" width="60" height="80" as="geometry" />
        </mxCell>
        <mxCell id="iVrFUYGp8FM9man2nASM-40" value="&lt;b&gt;DRT&lt;/b&gt;" style="text;html=1;align=center;verticalAlign=middle;resizable=0;points=[];autosize=1;strokeColor=none;fillColor=none;" vertex="1" parent="1">
          <mxGeometry x="-130" y="130" width="50" height="30" as="geometry" />
        </mxCell>
        <mxCell id="iVrFUYGp8FM9man2nASM-41" value="" style="endArrow=classic;html=1;rounded=0;exitX=1.021;exitY=0.228;exitDx=0;exitDy=0;exitPerimeter=0;entryX=0.123;entryY=0.742;entryDx=0;entryDy=0;entryPerimeter=0;" edge="1" parent="1" source="iVrFUYGp8FM9man2nASM-13" target="iVrFUYGp8FM9man2nASM-15">
          <mxGeometry width="50" height="50" relative="1" as="geometry">
            <mxPoint x="110" y="500" as="sourcePoint" />
            <mxPoint x="160" y="450" as="targetPoint" />
            <Array as="points">
              <mxPoint x="-86" y="381" />
            </Array>
          </mxGeometry>
        </mxCell>
        <mxCell id="iVrFUYGp8FM9man2nASM-42" value="Ansible Runners" style="text;html=1;align=center;verticalAlign=middle;resizable=0;points=[];autosize=1;strokeColor=none;fillColor=none;" vertex="1" parent="1">
          <mxGeometry x="159.55" y="400" width="110" height="30" as="geometry" />
        </mxCell>
        <mxCell id="iVrFUYGp8FM9man2nASM-43" value="&lt;font style=&quot;font-size: 10px;&quot;&gt;prod/preprod&lt;br&gt;pdt-deliver1&lt;/font&gt;" style="text;html=1;align=center;verticalAlign=middle;resizable=0;points=[];autosize=1;strokeColor=none;fillColor=none;" vertex="1" parent="1">
          <mxGeometry x="164.55" y="495" width="80" height="40" as="geometry" />
        </mxCell>
        <mxCell id="iVrFUYGp8FM9man2nASM-44" value="" style="sketch=0;aspect=fixed;pointerEvents=1;shadow=0;dashed=0;html=1;strokeColor=none;labelPosition=center;verticalLabelPosition=bottom;verticalAlign=top;align=center;fillColor=#00188D;shape=mxgraph.azure.server" vertex="1" parent="1">
          <mxGeometry x="179.55" y="530" width="50" height="15" as="geometry" />
        </mxCell>
        <mxCell id="iVrFUYGp8FM9man2nASM-45" value="&lt;font style=&quot;font-size: 10px;&quot;&gt;odf&lt;br&gt;pdt-deliverypp1&lt;/font&gt;" style="text;html=1;align=center;verticalAlign=middle;resizable=0;points=[];autosize=1;strokeColor=none;fillColor=none;" vertex="1" parent="1">
          <mxGeometry x="159.55" y="535" width="90" height="40" as="geometry" />
        </mxCell>
        <mxCell id="iVrFUYGp8FM9man2nASM-46" value="" style="sketch=0;aspect=fixed;pointerEvents=1;shadow=0;dashed=0;html=1;strokeColor=none;labelPosition=center;verticalLabelPosition=bottom;verticalAlign=top;align=center;fillColor=#00188D;shape=mxgraph.azure.server" vertex="1" parent="1">
          <mxGeometry x="179.55" y="575" width="50" height="15" as="geometry" />
        </mxCell>
        <mxCell id="iVrFUYGp8FM9man2nASM-47" value="&lt;font style=&quot;font-size: 10px;&quot;&gt;qa/dev&lt;br&gt;pt-deliveryqa1&lt;/font&gt;" style="text;html=1;align=center;verticalAlign=middle;resizable=0;points=[];autosize=1;strokeColor=none;fillColor=none;" vertex="1" parent="1">
          <mxGeometry x="159.55" y="580" width="90" height="40" as="geometry" />
        </mxCell>
        <mxCell id="iVrFUYGp8FM9man2nASM-48" value="" style="sketch=0;aspect=fixed;pointerEvents=1;shadow=0;dashed=0;html=1;strokeColor=none;labelPosition=center;verticalLabelPosition=bottom;verticalAlign=top;align=center;fillColor=#00188D;shape=mxgraph.azure.server" vertex="1" parent="1">
          <mxGeometry x="179.55" y="440" width="50" height="15" as="geometry" />
        </mxCell>
        <mxCell id="iVrFUYGp8FM9man2nASM-49" value="&lt;font style=&quot;font-size: 10px;&quot;&gt;aws&lt;br&gt;ansible-dev01&lt;/font&gt;" style="text;html=1;align=center;verticalAlign=middle;resizable=0;points=[];autosize=1;strokeColor=none;fillColor=none;" vertex="1" parent="1">
          <mxGeometry x="159.55" y="445" width="90" height="40" as="geometry" />
        </mxCell>
        <mxCell id="iVrFUYGp8FM9man2nASM-50" value="" style="endArrow=classic;html=1;rounded=0;" edge="1" parent="1" target="iVrFUYGp8FM9man2nASM-11">
          <mxGeometry width="50" height="50" relative="1" as="geometry">
            <mxPoint x="159.54999999999995" y="560" as="sourcePoint" />
            <mxPoint x="49.55" y="860" as="targetPoint" />
            <Array as="points">
              <mxPoint x="159.55" y="560" />
              <mxPoint x="29.549999999999997" y="560" />
              <mxPoint x="-66.45" y="560" />
            </Array>
          </mxGeometry>
        </mxCell>
        <mxCell id="iVrFUYGp8FM9man2nASM-51" value="" style="endArrow=classic;html=1;rounded=0;entryX=0.86;entryY=1.122;entryDx=0;entryDy=0;entryPerimeter=0;" edge="1" parent="1" target="iVrFUYGp8FM9man2nASM-15">
          <mxGeometry width="50" height="50" relative="1" as="geometry">
            <mxPoint x="480" y="390" as="sourcePoint" />
            <mxPoint x="-75.84999999999991" y="244.87999999999988" as="targetPoint" />
            <Array as="points">
              <mxPoint x="290" y="390" />
              <mxPoint x="290" y="370" />
              <mxPoint x="-49" y="370" />
            </Array>
          </mxGeometry>
        </mxCell>
        <mxCell id="iVrFUYGp8FM9man2nASM-52" value="" style="endArrow=classic;html=1;rounded=0;fontSize=10;exitX=1.003;exitY=0.57;exitDx=0;exitDy=0;exitPerimeter=0;" edge="1" parent="1" source="iVrFUYGp8FM9man2nASM-3" target="iVrFUYGp8FM9man2nASM-26">
          <mxGeometry width="50" height="50" relative="1" as="geometry">
            <mxPoint x="250" y="580" as="sourcePoint" />
            <mxPoint x="360" y="640" as="targetPoint" />
            <Array as="points">
              <mxPoint x="554" y="562" />
            </Array>
          </mxGeometry>
        </mxCell>
        <mxCell id="iVrFUYGp8FM9man2nASM-53" value="" style="endArrow=classic;html=1;rounded=0;fontSize=10;exitX=0.995;exitY=0.453;exitDx=0;exitDy=0;exitPerimeter=0;entryX=0.287;entryY=1.008;entryDx=0;entryDy=0;entryPerimeter=0;" edge="1" parent="1" source="iVrFUYGp8FM9man2nASM-2">
          <mxGeometry width="50" height="50" relative="1" as="geometry">
            <mxPoint x="329.55" y="485" as="sourcePoint" />
            <mxPoint x="400" y="280.96000000000004" as="targetPoint" />
          </mxGeometry>
        </mxCell>
        <mxCell id="iVrFUYGp8FM9man2nASM-54" value="" style="endArrow=classic;html=1;rounded=0;fontSize=10;exitX=1.058;exitY=0.183;exitDx=0;exitDy=0;exitPerimeter=0;entryX=0.088;entryY=1.034;entryDx=0;entryDy=0;entryPerimeter=0;" edge="1" parent="1" source="iVrFUYGp8FM9man2nASM-7">
          <mxGeometry width="50" height="50" relative="1" as="geometry">
            <mxPoint x="278.8999999999999" y="530.6000000000001" as="sourcePoint" />
            <mxPoint x="330.3499999999999" y="284.0799999999999" as="targetPoint" />
          </mxGeometry>
        </mxCell>
        <mxCell id="iVrFUYGp8FM9man2nASM-55" value="" style="endArrow=classic;html=1;rounded=0;fontSize=10;exitX=1;exitY=0.5;exitDx=0;exitDy=0;exitPerimeter=0;entryX=1;entryY=0.75;entryDx=0;entryDy=0;" edge="1" parent="1" source="iVrFUYGp8FM9man2nASM-21" target="iVrFUYGp8FM9man2nASM-6">
          <mxGeometry width="50" height="50" relative="1" as="geometry">
            <mxPoint x="535.4000000000001" y="479.75" as="sourcePoint" />
            <mxPoint x="700" y="220" as="targetPoint" />
            <Array as="points">
              <mxPoint x="590" y="387" />
              <mxPoint x="590" y="250" />
            </Array>
          </mxGeometry>
        </mxCell>
        <mxCell id="iVrFUYGp8FM9man2nASM-56" value="" style="whiteSpace=wrap;html=1;strokeColor=#000099;" vertex="1" parent="1">
          <mxGeometry x="-590" y="160" width="290" height="120" as="geometry" />
        </mxCell>
        <mxCell id="iVrFUYGp8FM9man2nASM-58" value="" style="sketch=0;aspect=fixed;pointerEvents=1;shadow=0;dashed=0;html=1;strokeColor=none;labelPosition=center;verticalLabelPosition=bottom;verticalAlign=top;align=center;fillColor=#00188D;shape=mxgraph.mscae.enterprise.internet" vertex="1" parent="1">
          <mxGeometry x="-630" y="135" width="80.65" height="50" as="geometry" />
        </mxCell>
        <mxCell id="iVrFUYGp8FM9man2nASM-59" value="&lt;b&gt;Gitlab Cloud&lt;/b&gt;" style="text;html=1;align=center;verticalAlign=middle;resizable=0;points=[];autosize=1;strokeColor=none;fillColor=none;" vertex="1" parent="1">
          <mxGeometry x="-560" y="130" width="90" height="30" as="geometry" />
        </mxCell>
        <mxCell id="iVrFUYGp8FM9man2nASM-60" value="" style="sketch=0;aspect=fixed;pointerEvents=1;shadow=0;dashed=0;html=1;strokeColor=none;labelPosition=center;verticalLabelPosition=bottom;verticalAlign=top;align=center;fillColor=#00188D;shape=mxgraph.azure.server_rack" vertex="1" parent="1">
          <mxGeometry x="-520" y="200" width="50" height="50" as="geometry" />
        </mxCell>
        <mxCell id="iVrFUYGp8FM9man2nASM-61" value="Gitlab" style="text;html=1;align=center;verticalAlign=middle;resizable=0;points=[];autosize=1;strokeColor=none;fillColor=none;" vertex="1" parent="1">
          <mxGeometry x="-520" y="170" width="50" height="30" as="geometry" />
        </mxCell>
        <mxCell id="iVrFUYGp8FM9man2nASM-62" value="" style="rounded=0;whiteSpace=wrap;html=1;" vertex="1" parent="1">
          <mxGeometry x="-440" y="190" width="130" height="70" as="geometry" />
        </mxCell>
        <mxCell id="iVrFUYGp8FM9man2nASM-63" value="Gitlab Runners" style="text;html=1;align=center;verticalAlign=middle;resizable=0;points=[];autosize=1;strokeColor=none;fillColor=none;" vertex="1" parent="1">
          <mxGeometry x="-424.99999999999994" y="160" width="100" height="30" as="geometry" />
        </mxCell>
        <mxCell id="iVrFUYGp8FM9man2nASM-64" value="" style="sketch=0;aspect=fixed;pointerEvents=1;shadow=0;dashed=0;html=1;strokeColor=none;labelPosition=center;verticalLabelPosition=bottom;verticalAlign=top;align=center;fillColor=#00188D;shape=mxgraph.azure.server" vertex="1" parent="1">
          <mxGeometry x="-399.99999999999994" y="208.75" width="50" height="15" as="geometry" />
        </mxCell>
        <mxCell id="iVrFUYGp8FM9man2nASM-65" value="" style="sketch=0;aspect=fixed;pointerEvents=1;shadow=0;dashed=0;html=1;strokeColor=none;labelPosition=center;verticalLabelPosition=bottom;verticalAlign=top;align=center;fillColor=#00188D;shape=mxgraph.azure.server" vertex="1" parent="1">
          <mxGeometry x="-399.99999999999994" y="235" width="50" height="15" as="geometry" />
        </mxCell>
        <mxCell id="iVrFUYGp8FM9man2nASM-70" value="" style="rounded=0;whiteSpace=wrap;html=1;" vertex="1" parent="1">
          <mxGeometry x="650" y="392.5" width="130" height="177.5" as="geometry" />
        </mxCell>
        <mxCell id="iVrFUYGp8FM9man2nASM-72" value="" style="sketch=0;aspect=fixed;pointerEvents=1;shadow=0;dashed=0;html=1;strokeColor=none;labelPosition=center;verticalLabelPosition=bottom;verticalAlign=top;align=center;fillColor=#00188D;shape=mxgraph.azure.server" vertex="1" parent="1">
          <mxGeometry x="690" y="452.5" width="50" height="15" as="geometry" />
        </mxCell>
        <mxCell id="iVrFUYGp8FM9man2nASM-73" value="CICD instances" style="text;html=1;align=center;verticalAlign=middle;resizable=0;points=[];autosize=1;strokeColor=none;fillColor=none;" vertex="1" parent="1">
          <mxGeometry x="660" y="362.5" width="110" height="30" as="geometry" />
        </mxCell>
        <mxCell id="iVrFUYGp8FM9man2nASM-77" value="" style="sketch=0;aspect=fixed;pointerEvents=1;shadow=0;dashed=0;html=1;strokeColor=none;labelPosition=center;verticalLabelPosition=bottom;verticalAlign=top;align=center;fillColor=#00188D;shape=mxgraph.azure.server" vertex="1" parent="1">
          <mxGeometry x="690" y="507.5" width="50" height="15" as="geometry" />
        </mxCell>
        <mxCell id="iVrFUYGp8FM9man2nASM-79" value="" style="sketch=0;aspect=fixed;pointerEvents=1;shadow=0;dashed=0;html=1;strokeColor=none;labelPosition=center;verticalLabelPosition=bottom;verticalAlign=top;align=center;fillColor=#00188D;shape=mxgraph.azure.server" vertex="1" parent="1">
          <mxGeometry x="690" y="402.5" width="50" height="15" as="geometry" />
        </mxCell>
        <mxCell id="iVrFUYGp8FM9man2nASM-80" value="&lt;span style=&quot;font-size: 10px;&quot;&gt;Vault&lt;/span&gt;" style="text;html=1;align=center;verticalAlign=middle;resizable=0;points=[];autosize=1;strokeColor=none;fillColor=none;" vertex="1" parent="1">
          <mxGeometry x="690" y="412.5" width="50" height="30" as="geometry" />
        </mxCell>
        <mxCell id="iVrFUYGp8FM9man2nASM-81" value="&lt;span style=&quot;font-size: 10px;&quot;&gt;Nexus 3&lt;/span&gt;" style="text;html=1;align=center;verticalAlign=middle;resizable=0;points=[];autosize=1;strokeColor=none;fillColor=none;" vertex="1" parent="1">
          <mxGeometry x="685" y="467.5" width="60" height="30" as="geometry" />
        </mxCell>
        <mxCell id="iVrFUYGp8FM9man2nASM-82" value="&lt;span style=&quot;font-size: 10px;&quot;&gt;Terraform&lt;/span&gt;" style="text;html=1;align=center;verticalAlign=middle;resizable=0;points=[];autosize=1;strokeColor=none;fillColor=none;" vertex="1" parent="1">
          <mxGeometry x="680" y="522.5" width="70" height="30" as="geometry" />
        </mxCell>
        <mxCell id="iVrFUYGp8FM9man2nASM-83" value="" style="sketch=0;aspect=fixed;pointerEvents=1;shadow=0;dashed=0;html=1;strokeColor=none;labelPosition=center;verticalLabelPosition=bottom;verticalAlign=top;align=center;fillColor=#00188D;shape=mxgraph.azure.server" vertex="1" parent="1">
          <mxGeometry x="690" y="640" width="50" height="15" as="geometry" />
        </mxCell>
        <mxCell id="iVrFUYGp8FM9man2nASM-84" value="&lt;span style=&quot;font-size: 10px;&quot;&gt;Ansible&lt;/span&gt;" style="text;html=1;align=center;verticalAlign=middle;resizable=0;points=[];autosize=1;strokeColor=none;fillColor=none;" vertex="1" parent="1">
          <mxGeometry x="685" y="655" width="60" height="30" as="geometry" />
        </mxCell>
        <mxCell id="iVrFUYGp8FM9man2nASM-86" value="CMSP instances" style="text;html=1;align=center;verticalAlign=middle;resizable=0;points=[];autosize=1;strokeColor=none;fillColor=none;" vertex="1" parent="1">
          <mxGeometry x="660" y="700" width="110" height="30" as="geometry" />
        </mxCell>
        <mxCell id="iVrFUYGp8FM9man2nASM-87" value="" style="rounded=0;whiteSpace=wrap;html=1;" vertex="1" parent="1">
          <mxGeometry x="20" y="640" width="110.45" height="70" as="geometry" />
        </mxCell>
        <mxCell id="iVrFUYGp8FM9man2nASM-88" value="Gitlab Runners" style="text;html=1;align=center;verticalAlign=middle;resizable=0;points=[];autosize=1;strokeColor=none;fillColor=none;" vertex="1" parent="1">
          <mxGeometry x="25.220000000000084" y="610" width="100" height="30" as="geometry" />
        </mxCell>
        <mxCell id="iVrFUYGp8FM9man2nASM-89" value="" style="sketch=0;aspect=fixed;pointerEvents=1;shadow=0;dashed=0;html=1;strokeColor=none;labelPosition=center;verticalLabelPosition=bottom;verticalAlign=top;align=center;fillColor=#00188D;shape=mxgraph.azure.server" vertex="1" parent="1">
          <mxGeometry x="50.220000000000084" y="658.75" width="50" height="15" as="geometry" />
        </mxCell>
        <mxCell id="iVrFUYGp8FM9man2nASM-90" value="" style="sketch=0;aspect=fixed;pointerEvents=1;shadow=0;dashed=0;html=1;strokeColor=none;labelPosition=center;verticalLabelPosition=bottom;verticalAlign=top;align=center;fillColor=#00188D;shape=mxgraph.azure.server" vertex="1" parent="1">
          <mxGeometry x="50.220000000000084" y="685" width="50" height="15" as="geometry" />
        </mxCell>
      </root>
    </mxGraphModel>
  </diagram>
</mxfile>
